<svg xmlns="http://www.w3.org/2000/svg" viewBox="0 0 17.21 12.22"><defs><style>.a{fill:#009f7d;}.b{fill:#110a50;}</style></defs><title>swachhdata-logo</title><path class="a" d="M648.49,645.89a2.16,2.16,0,0,1-.2-.7v-9.3a1.57,1.57,0,0,0-1.56-1.6h-2.44a1.37,1.37,0,0,1,1,1.3v9.6h0v1.1h3.8C648.88,646.29,648.69,646.09,648.49,645.89Zm-5-.2c-.3-.3-.4-1-.4-2.7v-2.1a5.38,5.38,0,0,1,.2-1.2,1.19,1.19,0,0,1,1.1-.8h.4a2.26,2.26,0,0,0-1.6-.4c-2.1,0-3.31,1.3-3.31,4s1.1,4,2.9,4a2.15,2.15,0,0,0,2-.8A1,1,0,0,1,643.49,645.69Z" transform="translate(-631.88 -634.29)"/><path class="b" d="M634.09,638.49c.1-.1.4,0,.5.1a.51.51,0,0,1,.4.2c.6.4.6,1.2,1.3,1.5a1,1,0,0,0,.9-.1c.8-.6.3-1.5-.4-1.9a2.49,2.49,0,0,0-2.5.1Z" transform="translate(-631.88 -634.29)"/><path class="b" d="M635.09,646.19c-.1,0-.3-.1-.4-.1a.54.54,0,0,1-.4-.2c-.5-.5-.3-1.3-1-1.6a.91.91,0,0,0-1,0c-.8.5-.3,1.4.3,1.8a2.3,2.3,0,0,0,2.4.1C635,646.29,635.09,646.19,635.09,646.19Z" transform="translate(-631.88 -634.29)"/><path class="b" d="M635.39,641c-.5-.2-1.1-.4-1.6-.6h0q-.15,0-.3-.3a1,1,0,0,1-.2-1.3h0a2.7,2.7,0,0,0-1.41,2.4c0,1.8,1.4,2.3,2.7,2.7a4.86,4.86,0,0,1,1.7.6c.1,0,.1,0,.1.1h0a1.24,1.24,0,0,1,.3,1.6,2.42,2.42,0,0,0,1.3-2.4C638.09,641.79,636.69,641.29,635.39,641Z" transform="translate(-631.88 -634.29)"/></svg>