<svg xmlns="http://www.w3.org/2000/svg" viewBox="0 0 38.33 5.6"><defs><style>.a{fill:#110a50;}.b{fill:#009f7d;}</style></defs><title>swachhdata-name</title><path class="a" d="M23,8.22a1.08,1.08,0,0,0,.5-.09c.09-.05.18-.19.14-.28a.3.3,0,0,0-.19-.32l-.55-.28a1.65,1.65,0,0,1-.41-.18A1.19,1.19,0,0,1,22,6.52a1.79,1.79,0,0,1-.09-.46,1,1,0,0,1,.37-.78,1.57,1.57,0,0,1,1-.32,2.85,2.85,0,0,1,1,.18l-.14.69-.36-.14a2.17,2.17,0,0,0-.51,0,1.43,1.43,0,0,0-.41.09.31.31,0,0,0-.18.28.28.28,0,0,0,0,.18c.05,0,.05.09.09.14l.28.18c.09.05.23.09.32.14a1.52,1.52,0,0,1,.5.23.72.72,0,0,1,.37.27.36.36,0,0,1,.18.28,1.13,1.13,0,0,1,0,.41.93.93,0,0,1-.41.78A2.41,2.41,0,0,1,23,8.9a2.06,2.06,0,0,1-.78-.09l-.41-.13L22,7.94l.45.14A1.75,1.75,0,0,0,23,8.22Z" transform="translate(-21.81 -3.31)"/><path class="a" d="M27.61,6.47a11,11,0,0,1-.37,1.24,10.87,10.87,0,0,1-.36,1.1h-.69a6.73,6.73,0,0,0-.32-.73c-.14-.28-.18-.6-.32-.92s-.19-.64-.32-1a9.93,9.93,0,0,1-.32-1.06h.91c.05.18.09.41.14.64s.14.46.18.69.14.46.19.69a3.58,3.58,0,0,1,.18.64c.09-.23.14-.46.23-.69a3.88,3.88,0,0,0,.18-.69,3.55,3.55,0,0,1,.19-.69c.05-.23.09-.41.13-.64h.65a4.28,4.28,0,0,0,.13.64,3.9,3.9,0,0,0,.19.69,4.39,4.39,0,0,0,.18.69,3.88,3.88,0,0,1,.18.69c.05-.19.14-.41.19-.64s.14-.46.18-.69.14-.46.18-.69l.14-.64h.87a6.36,6.36,0,0,1-.32,1.05,8.94,8.94,0,0,0-.32,1c-.09.32-.23.6-.32.92a2.17,2.17,0,0,1-.32.73h-.69c-.14-.36-.23-.73-.37-1.1A3.67,3.67,0,0,0,27.61,6.47Z" transform="translate(-21.81 -3.31)"/><path class="a" d="M32.17,5a4.41,4.41,0,0,1,.73.09,1,1,0,0,1,.46.32.91.91,0,0,1,.23.46,2.9,2.9,0,0,1,.09.59V8.72a2.9,2.9,0,0,1-.59.09,7.06,7.06,0,0,1-.92,0,3,3,0,0,1-.6,0,1.3,1.3,0,0,1-.46-.18,1.26,1.26,0,0,1-.32-.37.81.81,0,0,1-.09-.55,1.18,1.18,0,0,1,.14-.55,1.22,1.22,0,0,1,.32-.36.91.91,0,0,1,.5-.19,3,3,0,0,1,.6,0h.64V6.47a.72.72,0,0,0-.41-.68.77.77,0,0,0-.37,0,2.53,2.53,0,0,0-.55,0,1.43,1.43,0,0,0-.41.09l-.09-.69a1.79,1.79,0,0,1,.46-.09A3.41,3.41,0,0,1,32.17,5Zm.09,3.21a3,3,0,0,0,.6-.05v-1h-.74a.62.62,0,0,0-.27.09.85.85,0,0,0-.19.14.71.71,0,0,0-.09.28.48.48,0,0,0,.19.41,1,1,0,0,0,.5.14Z" transform="translate(-21.81 -3.31)"/><path class="a" d="M34.55,6.89a2.29,2.29,0,0,1,.14-.78,1.71,1.71,0,0,1,.37-.64,1.87,1.87,0,0,1,.59-.42,2.06,2.06,0,0,1,.78-.13,2.46,2.46,0,0,1,1,.18l-.18.69a.92.92,0,0,0-.32-.1,1.41,1.41,0,0,0-.41,0,1,1,0,0,0-.78.32,1.4,1.4,0,0,0-.33.92,2,2,0,0,0,.23.87,1,1,0,0,0,.83.32A1.31,1.31,0,0,0,36.94,8a.53.53,0,0,0,.36-.09l.14.74L37,8.81a2.86,2.86,0,0,1-1.42-.09,1.65,1.65,0,0,1-.6-.41,2.28,2.28,0,0,1-.36-.6A2.51,2.51,0,0,1,34.55,6.89Z" transform="translate(-21.81 -3.31)"/><path class="a" d="M38.08,8.81V3.45L39,3.31V5.14a.45.45,0,0,0,.32-.09.73.73,0,0,1,.36,0,2.1,2.1,0,0,1,.74.13.8.8,0,0,1,.46.37.72.72,0,0,1,.22.55,3.28,3.28,0,0,1,.1.69v2h-.87V6.89a2.17,2.17,0,0,0,0-.51.43.43,0,0,0-.14-.32A.38.38,0,0,0,40,5.88a1.8,1.8,0,0,0-.73,0H39V8.81Z" transform="translate(-21.81 -3.31)"/><path class="a" d="M42.26,8.81V3.45l.82-.14V5.14a.44.44,0,0,0,.32-.09,1.15,1.15,0,0,1,.37,0,2,2,0,0,1,.73.13.77.77,0,0,1,.46.37.75.75,0,0,1,.23.55,4.08,4.08,0,0,1,.09.69v2h-.87V6.89a2.17,2.17,0,0,0,0-.51.43.43,0,0,0-.14-.32A.5.5,0,0,0,44,5.88a1.8,1.8,0,0,0-.73,0H43V8.81Z" transform="translate(-21.81 -3.31)"/><path class="b" d="M49.5,8.72l-.64.14a3.84,3.84,0,0,1-.83,0,2,2,0,0,1-.77-.13,2.62,2.62,0,0,1-.6-.37,1.55,1.55,0,0,1-.37-.6A2.18,2.18,0,0,1,46.15,7a4,4,0,0,1,.1-.77,1.52,1.52,0,0,1,.32-.6,1.24,1.24,0,0,1,.5-.41,1.74,1.74,0,0,1,1.19,0l.37.14V3.45l.87-.14ZM47.07,7a1.66,1.66,0,0,0,.28.92.92.92,0,0,0,.73.32h.37c.09,0,.13-.05.23-.05V6a.83.83,0,0,1-.32-.14,1.48,1.48,0,0,0-.42,0,.75.75,0,0,0-.68.32A1.39,1.39,0,0,0,47.07,7Z" transform="translate(-21.81 -3.31)"/><path class="b" d="M51.84,5a4.41,4.41,0,0,1,.73.09,1,1,0,0,1,.46.32.91.91,0,0,1,.23.46,2,2,0,0,1,.09.59V8.72a2.9,2.9,0,0,1-.59.09,7.06,7.06,0,0,1-.92,0,3,3,0,0,1-.6,0,1.25,1.25,0,0,1-.45-.18,1.46,1.46,0,0,1-.33-.37,1.19,1.19,0,0,1,0-1.1,1.42,1.42,0,0,1,.33-.36.91.91,0,0,1,.5-.19,3.11,3.11,0,0,1,.6-.09h.32c.09,0,.23.05.32.05v-.1a.5.5,0,0,0-.05-.27.61.61,0,0,0-.36-.41,1.15,1.15,0,0,0-.37,0,1.69,1.69,0,0,0-.55,0,1.43,1.43,0,0,0-.41.09l-.1-.69a1.79,1.79,0,0,1,.46-.09A1.63,1.63,0,0,1,51.84,5Zm.09,3.21a3,3,0,0,0,.6-.05v-1h-.78a.71.71,0,0,0-.28.09.62.62,0,0,0-.18.14.71.71,0,0,0-.09.28.49.49,0,0,0,.18.41,1.39,1.39,0,0,0,.53.14Z" transform="translate(-21.81 -3.31)"/><path class="b" d="M54.36,4.09,55.23,4V5.1h1.33v.74H55.23V7.3a1.57,1.57,0,0,0,.14.64.56.56,0,0,0,.51.19,1.4,1.4,0,0,0,.41-.05c.09-.05.18-.05.27-.09l.14.69-.41.13a1.28,1.28,0,0,1-.55,0,4.08,4.08,0,0,1-.69-.09.81.81,0,0,1-.41-.32,2,2,0,0,1-.23-.51,3.42,3.42,0,0,1,0-.64Z" transform="translate(-21.81 -3.31)"/><path class="b" d="M58.63,5a4.41,4.41,0,0,1,.73.09,1,1,0,0,1,.46.32.91.91,0,0,1,.23.46,2.9,2.9,0,0,1,.09.59V8.72a3.11,3.11,0,0,1-.6.09,6.91,6.91,0,0,1-.91,0,3,3,0,0,1-.6,0,1.3,1.3,0,0,1-.46-.18,1.14,1.14,0,0,1-.32-.37.75.75,0,0,1-.09-.55,1.18,1.18,0,0,1,.14-.55,1.22,1.22,0,0,1,.32-.36.91.91,0,0,1,.5-.19,3,3,0,0,1,.6,0h.6V6.47a.61.61,0,0,0,0-.27A.53.53,0,0,0,59,5.83a1.09,1.09,0,0,0-.36,0,2.62,2.62,0,0,0-.56,0,1.43,1.43,0,0,0-.41.09l-.09-.68a1.46,1.46,0,0,1,.46-.1A2,2,0,0,1,58.63,5Zm.09,3.21a2.88,2.88,0,0,0,.59-.05v-1a1.4,1.4,0,0,0-.5,0h-.27a.71.71,0,0,0-.28.09.62.62,0,0,0-.18.14.66.66,0,0,0-.09.28.49.49,0,0,0,.18.41,1.32,1.32,0,0,0,.55.14Z" transform="translate(-21.81 -3.31)"/></svg>