<svg xmlns="http://www.w3.org/2000/svg" viewBox="0 0 60.15 12.22"><defs><style>.a{fill:#009f7d;}.b{fill:#110a50;}</style></defs><title>swachhdata</title><path class="a" d="M16.61,11.6a1.94,1.94,0,0,1-.2-.7V1.6A1.58,1.58,0,0,0,14.85,0H12.41a1.38,1.38,0,0,1,1,1.3v9.6h0V12h3.8C17,12,16.81,11.8,16.61,11.6Zm-5-.2c-.3-.3-.4-1-.4-2.7V6.6a4.86,4.86,0,0,1,.2-1.2,1.17,1.17,0,0,1,1.1-.8h.4a2.28,2.28,0,0,0-1.6-.4C9.21,4.2,8,5.5,8,8.2s1.1,4,2.9,4a2.17,2.17,0,0,0,2-.8A1.05,1.05,0,0,1,11.61,11.4Z" transform="translate(0 0)"/><path class="b" d="M2.21,4.2c.1-.1.4,0,.5.1a.52.52,0,0,1,.4.2c.6.4.6,1.2,1.3,1.5a1,1,0,0,0,.9-.1c.8-.6.3-1.5-.4-1.9a2.49,2.49,0,0,0-2.5.1Z" transform="translate(0 0)"/><path class="b" d="M3.21,11.9c-.1,0-.3-.1-.4-.1a.52.52,0,0,1-.4-.2c-.5-.5-.3-1.3-1-1.6a.91.91,0,0,0-1,0c-.8.5-.3,1.4.3,1.8a2.3,2.3,0,0,0,2.4.1C3.11,12,3.21,11.9,3.21,11.9Z" transform="translate(0 0)"/><path class="b" d="M3.51,6.7c-.5-.2-1.1-.4-1.6-.6h0q-.15,0-.3-.3a1,1,0,0,1-.2-1.3h0A2.69,2.69,0,0,0,0,6.9c0,1.8,1.4,2.3,2.7,2.7a4.86,4.86,0,0,1,1.7.6c.1,0,.1,0,.1.1h0a1.25,1.25,0,0,1,.3,1.6,2.44,2.44,0,0,0,1.3-2.4C6.21,7.5,4.81,7,3.51,6.7Z" transform="translate(0 0)"/><path class="b" d="M23,8.22a1.08,1.08,0,0,0,.5-.09c.09-.05.18-.19.14-.28a.3.3,0,0,0-.19-.32l-.55-.28a1.65,1.65,0,0,1-.41-.18A1.22,1.22,0,0,1,22,6.52a1.79,1.79,0,0,1-.09-.46,1,1,0,0,1,.37-.78,1.58,1.58,0,0,1,1-.32,2.7,2.7,0,0,1,1,.18l-.14.69a3.84,3.84,0,0,1-.36-.14,2.19,2.19,0,0,0-.51,0,1.43,1.43,0,0,0-.41.09.31.31,0,0,0-.18.28.23.23,0,0,0,0,.18c.05,0,.05.09.09.14l.28.18c.09.05.23.09.32.14a1.52,1.52,0,0,1,.5.23.72.72,0,0,1,.37.27.36.36,0,0,1,.18.28,1.13,1.13,0,0,1,.05.41.93.93,0,0,1-.41.78A2.43,2.43,0,0,1,23,8.9a2.06,2.06,0,0,1-.78-.09l-.41-.13.14-.74.45.14A1.62,1.62,0,0,0,23,8.22Z" transform="translate(0 0)"/><path class="b" d="M27.61,6.47a10.42,10.42,0,0,1-.37,1.24,11,11,0,0,1-.36,1.1h-.69a7.11,7.11,0,0,0-.32-.73c-.14-.28-.18-.6-.32-.92s-.19-.64-.32-1S25,5.47,24.91,5.1h.91c.05.18.09.41.14.64s.14.46.18.69.14.46.19.69a3.36,3.36,0,0,1,.18.64c.09-.23.14-.46.23-.69a3.88,3.88,0,0,0,.18-.69c0-.23.14-.46.19-.69s.09-.41.13-.64h.65c0,.19.09.42.13.64a3.9,3.9,0,0,0,.19.69c0,.23.14.46.18.69a3.88,3.88,0,0,1,.18.69c.05-.19.14-.41.19-.64s.14-.46.18-.69.14-.46.18-.69l.14-.64h.87a6.36,6.36,0,0,1-.32,1.05,9.1,9.1,0,0,0-.32,1c-.09.32-.23.6-.32.92a2.17,2.17,0,0,1-.32.73h-.69c-.14-.36-.23-.73-.37-1.1A3.73,3.73,0,0,0,27.61,6.47Z" transform="translate(0 0)"/><path class="b" d="M32.17,5a4.41,4.41,0,0,1,.73.09,1,1,0,0,1,.46.32.91.91,0,0,1,.23.46,2.9,2.9,0,0,1,.09.59V8.72a2.9,2.9,0,0,1-.59.09,5.68,5.68,0,0,1-.92,0,2.43,2.43,0,0,1-.6,0,1.38,1.38,0,0,1-.46-.18,1.28,1.28,0,0,1-.32-.37.8.8,0,0,1-.09-.55,1.18,1.18,0,0,1,.14-.55,1.22,1.22,0,0,1,.32-.36.94.94,0,0,1,.5-.19,2.43,2.43,0,0,1,.6,0h.32c.09,0,.23,0,.32,0V6.47a.72.72,0,0,0-.41-.68.92.92,0,0,0-.37,0,2.05,2.05,0,0,0-.55,0,1.43,1.43,0,0,0-.41.09l-.09-.69a1.79,1.79,0,0,1,.46-.09A3.4,3.4,0,0,1,32.17,5Zm.09,3.21a3,3,0,0,0,.6-.05v-1s-.14,0-.19,0h-.55a.66.66,0,0,0-.27.09.85.85,0,0,0-.19.14.71.71,0,0,0-.09.28.5.5,0,0,0,.19.41A1,1,0,0,0,32.26,8.22Z" transform="translate(0 0)"/><path class="b" d="M34.55,6.89a2.29,2.29,0,0,1,.14-.78,1.71,1.71,0,0,1,.37-.64,1.87,1.87,0,0,1,.59-.42,2.1,2.1,0,0,1,.78-.13,2.48,2.48,0,0,1,1,.18l-.18.69a.92.92,0,0,0-.32-.1,1.46,1.46,0,0,0-.41,0,1,1,0,0,0-.78.32,1.4,1.4,0,0,0-.33.92,2,2,0,0,0,.23.87,1,1,0,0,0,.83.32A1.44,1.44,0,0,0,36.94,8c.14,0,.23,0,.36-.09l.14.74L37,8.81a2.86,2.86,0,0,1-1.42-.09,1.65,1.65,0,0,1-.6-.41,2.28,2.28,0,0,1-.36-.6A2.53,2.53,0,0,1,34.55,6.89Z" transform="translate(0 0)"/><path class="b" d="M38.08,8.81V3.45L39,3.31V5.14c.09,0,.22,0,.32-.09a.87.87,0,0,1,.36,0,2.1,2.1,0,0,1,.74.13.8.8,0,0,1,.46.37.75.75,0,0,1,.22.55,3.28,3.28,0,0,1,.1.69V8.81h-.87V6.89a2.21,2.21,0,0,0,0-.51.43.43,0,0,0-.14-.32.42.42,0,0,0-.23-.18,1.8,1.8,0,0,0-.73,0c-.09,0-.18,0-.28,0V8.81Z" transform="translate(0 0)"/><path class="b" d="M42.26,8.81V3.45l.82-.14V5.14c.09,0,.23,0,.32-.09a.94.94,0,0,1,.37,0,2,2,0,0,1,.73.13.75.75,0,0,1,.46.37.76.76,0,0,1,.23.55,3.26,3.26,0,0,1,.09.69V8.81h-.87V6.89a2.19,2.19,0,0,0,0-.51.43.43,0,0,0-.14-.32A.5.5,0,0,0,44,5.88a1.8,1.8,0,0,0-.73,0c-.1,0-.19,0-.28,0V8.81Z" transform="translate(0 0)"/><path class="a" d="M49.5,8.72l-.64.14a4.57,4.57,0,0,1-.83,0,2,2,0,0,1-.77-.13,2.62,2.62,0,0,1-.6-.37,1.55,1.55,0,0,1-.37-.6A2.25,2.25,0,0,1,46.15,7a4,4,0,0,1,.1-.77,1.45,1.45,0,0,1,.32-.6,1.24,1.24,0,0,1,.5-.41,1.74,1.74,0,0,1,1.19,0l.37.14V3.45l.87-.14ZM47.07,7a1.71,1.71,0,0,0,.28.92.92.92,0,0,0,.73.32h.37c.09,0,.13-.05.23-.05V6c-.1,0-.23-.09-.32-.14a1.2,1.2,0,0,0-.42,0,.75.75,0,0,0-.68.32A1.4,1.4,0,0,0,47.07,7Z" transform="translate(0 0)"/><path class="a" d="M51.84,5a4.41,4.41,0,0,1,.73.09,1,1,0,0,1,.46.32.91.91,0,0,1,.23.46,2.34,2.34,0,0,1,.09.59V8.72a2.9,2.9,0,0,1-.59.09,5.68,5.68,0,0,1-.92,0,2.43,2.43,0,0,1-.6,0,1.25,1.25,0,0,1-.45-.18,1.31,1.31,0,0,1-.33-.37,1.19,1.19,0,0,1,0-1.1,1.42,1.42,0,0,1,.33-.36.91.91,0,0,1,.5-.19,2.89,2.89,0,0,1,.6-.09h.32c.09,0,.23.05.32.05v-.1a.52.52,0,0,0-.05-.27.62.62,0,0,0-.36-.41,1,1,0,0,0-.37,0,2,2,0,0,0-.55,0,1.43,1.43,0,0,0-.41.09l-.1-.69a1.87,1.87,0,0,1,.46-.09A1.63,1.63,0,0,1,51.84,5Zm.09,3.21a3,3,0,0,0,.6-.05v-1c-.05,0-.14,0-.19,0h-.59a.71.71,0,0,0-.28.09.62.62,0,0,0-.18.14.71.71,0,0,0-.09.28.49.49,0,0,0,.18.41,1.27,1.27,0,0,0,.53.14Z" transform="translate(0 0)"/><path class="a" d="M54.36,4.09,55.23,4v1.1h1.33v.74H55.23V7.3a1.57,1.57,0,0,0,.14.64.56.56,0,0,0,.51.19,1.48,1.48,0,0,0,.41-.05c.09-.05.18-.05.27-.09l.14.69-.41.13a1.15,1.15,0,0,1-.55,0,4.08,4.08,0,0,1-.69-.09.77.77,0,0,1-.41-.32,1.67,1.67,0,0,1-.23-.51,2.76,2.76,0,0,1,0-.64Z" transform="translate(0 0)"/><path class="a" d="M58.63,5a4.55,4.55,0,0,1,.73.09,1,1,0,0,1,.46.32.91.91,0,0,1,.23.46,2.9,2.9,0,0,1,.09.59V8.72a2.89,2.89,0,0,1-.6.09,5.56,5.56,0,0,1-.91,0,2.43,2.43,0,0,1-.6,0,1.3,1.3,0,0,1-.46-.18,1.14,1.14,0,0,1-.32-.37.75.75,0,0,1-.09-.55,1.18,1.18,0,0,1,.14-.55,1.22,1.22,0,0,1,.32-.36.94.94,0,0,1,.5-.19,2.43,2.43,0,0,1,.6,0H59c.1,0,.23,0,.32,0V6.47a.51.51,0,0,0,0-.27.55.55,0,0,0-.37-.37.89.89,0,0,0-.36,0,2.12,2.12,0,0,0-.56,0,1.43,1.43,0,0,0-.41.09l-.09-.68a1.46,1.46,0,0,1,.46-.1A2,2,0,0,1,58.63,5Zm.09,3.21a2.88,2.88,0,0,0,.59-.05v-1a1.67,1.67,0,0,0-.5,0h-.27a.66.66,0,0,0-.28.09.62.62,0,0,0-.18.14.58.58,0,0,0-.09.28.49.49,0,0,0,.18.41A1.32,1.32,0,0,0,58.72,8.22Z" transform="translate(0 0)"/></svg>