<svg xmlns="http://www.w3.org/2000/svg" viewBox="0 0 991.92 145.45"><defs><style>.a{fill:#110a50;}.b{fill:#009f7d;}</style></defs><title>swachhdata-5</title><path class="a" d="M175.55,662.13q8.85,0,12.9-2.12c2.7-1.41,4.06-3.84,4.06-7.28a9.47,9.47,0,0,0-4.33-7.93q-4.34-3.13-14.29-6.82a113.44,113.44,0,0,1-11.15-4.7,37.91,37.91,0,0,1-8.76-5.81,23.78,23.78,0,0,1-5.81-8,28,28,0,0,1-2.12-11.52q0-13.27,9.77-20.92t26.54-7.65a81.22,81.22,0,0,1,16.22,1.57,80.05,80.05,0,0,1,11.61,3L206.13,602a54.21,54.21,0,0,0-9.4-3,57,57,0,0,0-13.27-1.38q-6.83,0-11.06,2.3a7.56,7.56,0,0,0-4.24,7.1,10.28,10.28,0,0,0,.83,4.24,9,9,0,0,0,2.86,3.41,28.44,28.44,0,0,0,5.35,3.13,81.31,81.31,0,0,0,8.11,3.23,124,124,0,0,1,13.46,5.81,36.52,36.52,0,0,1,9.12,6.45,22,22,0,0,1,5.25,8.2,32.65,32.65,0,0,1,1.66,11.06q0,13.83-10.23,20.92t-29.22,7.1q-12.72,0-20.46-2.12A105.69,105.69,0,0,1,144,675l3.87-18.62a101.1,101.1,0,0,0,11.89,3.87A61.55,61.55,0,0,0,175.55,662.13Z" transform="translate(-144.01 -535.12)"/><path class="a" d="M293.24,617.52q-4.25,16.22-9.12,31.61t-9.67,29H256.14q-3.69-8.48-7.76-19.36t-8.13-23.23q-4.06-12.35-8.13-26t-7.94-27.83h23.6q1.66,7.74,3.89,16.68t4.63,18.25q2.42,9.32,5,18.16t5.19,16.22q2.77-8.47,5.45-17.51T277,615.48q2.4-9,4.53-17.6t3.79-16.13h17.14q1.65,7.56,3.68,16.13t4.32,17.6q2.29,9,5,18.07t5.43,17.51q2.4-7.37,5-16.22t5.1-18.16q2.5-9.3,4.72-18.25t3.89-16.68h23.05q-3.88,14.19-7.94,27.83t-8.13,26q-4.06,12.34-8.13,23.23t-7.94,19.36H312.37q-4.78-13.63-9.85-29T293.24,617.52Z" transform="translate(-144.01 -535.12)"/><path class="a" d="M411.5,579.37q11.06,0,18.62,2.76a29.64,29.64,0,0,1,12.07,7.74,29,29,0,0,1,6.45,12.07,59.14,59.14,0,0,1,1.94,15.58V676q-5.16,1.11-15.58,2.67a159.65,159.65,0,0,1-23.5,1.57,70.25,70.25,0,0,1-15.85-1.66,33.39,33.39,0,0,1-12.26-5.35,25.25,25.25,0,0,1-7.93-9.59q-2.86-5.9-2.86-14.56a28,28,0,0,1,3.23-14,26.48,26.48,0,0,1,8.76-9.31,37.79,37.79,0,0,1,12.81-5.16A72.37,72.37,0,0,1,412.61,619a70.27,70.27,0,0,1,7.74.46A72.27,72.27,0,0,1,429,621v-3.69a29,29,0,0,0-.92-7.37,14.78,14.78,0,0,0-9.31-10.32,26.41,26.41,0,0,0-9.49-1.48,83.91,83.91,0,0,0-14.19,1.11,63,63,0,0,0-10.51,2.58l-2.77-18.06a87.8,87.8,0,0,1,12.35-2.95A97.08,97.08,0,0,1,411.5,579.37Zm1.84,83.13A82.78,82.78,0,0,0,429,661.39v-24.7a43.19,43.19,0,0,0-5.35-1.11,49.77,49.77,0,0,0-7.74-.55,51.36,51.36,0,0,0-7.47.55,23.41,23.41,0,0,0-6.82,2,12.35,12.35,0,0,0-4.88,4.15,11.58,11.58,0,0,0-1.84,6.73q0,7.92,5,11T413.34,662.5Z" transform="translate(-144.01 -535.12)"/><path class="a" d="M472.51,630.06a59.19,59.19,0,0,1,3.32-20,47.47,47.47,0,0,1,9.49-16.13,43.45,43.45,0,0,1,15-10.69,49.22,49.22,0,0,1,19.91-3.87,67.49,67.49,0,0,1,25.81,5l-4.79,18.25a50.45,50.45,0,0,0-8.76-2.77,47,47,0,0,0-10.42-1.11q-13.1,0-19.91,8.2t-6.82,23.13q0,14.38,6.45,22.77t21.75,8.39a56.9,56.9,0,0,0,11.24-1.11,52.49,52.49,0,0,0,9.58-2.77l3.13,18.43a46.32,46.32,0,0,1-11.15,3.32A79.53,79.53,0,0,1,521,680.56q-12.36,0-21.48-3.78a40.8,40.8,0,0,1-15.12-10.51,43.31,43.31,0,0,1-8.94-16A67.16,67.16,0,0,1,472.51,630.06Z" transform="translate(-144.01 -535.12)"/><path class="a" d="M564.86,678.17V538.81l22.3-3.69v47.74a59,59,0,0,1,8.57-2.21,52.42,52.42,0,0,1,9.68-.92q11.61,0,19.26,3.23a30.31,30.31,0,0,1,12.26,9,35.19,35.19,0,0,1,6.54,13.92A78,78,0,0,1,645.41,624v54.2h-22.3V627.48a73.83,73.83,0,0,0-1-13.18,23.45,23.45,0,0,0-3.32-8.85,13.4,13.4,0,0,0-6.18-5A25.76,25.76,0,0,0,603,598.9a46.28,46.28,0,0,0-9,.92,63.33,63.33,0,0,0-6.82,1.66v76.68h-22.3Z" transform="translate(-144.01 -535.12)"/><path class="a" d="M672.14,678.17V538.81l22.31-3.69v47.74a59,59,0,0,1,8.57-2.21,52.5,52.5,0,0,1,9.68-.92q11.61,0,19.26,3.23a30.38,30.38,0,0,1,12.26,9,35.19,35.19,0,0,1,6.54,13.92A78,78,0,0,1,752.7,624v54.2H730.39V627.48a73.83,73.83,0,0,0-1-13.18,23.45,23.45,0,0,0-3.32-8.85,13.35,13.35,0,0,0-6.18-5,25.74,25.74,0,0,0-9.58-1.57,46.28,46.28,0,0,0-9,.92,63.33,63.33,0,0,0-6.82,1.66v76.68H672.14Z" transform="translate(-144.01 -535.12)"/><path class="b" d="M860.9,675.22a133.17,133.17,0,0,1-16.68,3.69,129,129,0,0,1-21.11,1.66,56.34,56.34,0,0,1-20.46-3.5A42.49,42.49,0,0,1,787.26,667a44.21,44.21,0,0,1-9.77-15.85,60.32,60.32,0,0,1-3.41-20.92,70.36,70.36,0,0,1,2.86-20.74,45.23,45.23,0,0,1,8.39-15.94,37.46,37.46,0,0,1,13.46-10.23,43.71,43.71,0,0,1,18.25-3.6,41.62,41.62,0,0,1,12.35,1.66,55.91,55.91,0,0,1,9.22,3.69V538.82l22.31-3.69V675.22Zm-64-45.53q0,14.74,7,23.13t19.36,8.39a76.31,76.31,0,0,0,9.12-.46,61.51,61.51,0,0,0,6.17-1v-55.3a34.9,34.9,0,0,0-7.83-3.78,30.6,30.6,0,0,0-10.42-1.75q-12.17,0-17.79,8.29T796.94,629.69Z" transform="translate(-144.01 -535.12)"/><path class="b" d="M921.36,579.37q11.05,0,18.62,2.76a29.64,29.64,0,0,1,12.07,7.74,29,29,0,0,1,6.45,12.07,59.14,59.14,0,0,1,1.94,15.58V676q-5.16,1.11-15.58,2.67a159.65,159.65,0,0,1-23.5,1.57,70.25,70.25,0,0,1-15.85-1.66,33.39,33.39,0,0,1-12.26-5.35,25.25,25.25,0,0,1-7.93-9.59q-2.87-5.9-2.86-14.56a28.13,28.13,0,0,1,3.23-14,26.48,26.48,0,0,1,8.76-9.31,37.79,37.79,0,0,1,12.81-5.16A72.37,72.37,0,0,1,922.47,619a70.27,70.27,0,0,1,7.74.46,72.27,72.27,0,0,1,8.66,1.57v-3.69A29,29,0,0,0,938,610a14.78,14.78,0,0,0-9.31-10.32,26.41,26.41,0,0,0-9.49-1.48A83.91,83.91,0,0,0,905,599.27a63,63,0,0,0-10.51,2.58l-2.77-18.06A87.8,87.8,0,0,1,904,580.84,97.24,97.24,0,0,1,921.36,579.37Zm1.85,83.13a82.78,82.78,0,0,0,15.67-1.11v-24.7a43.19,43.19,0,0,0-5.35-1.11,49.77,49.77,0,0,0-7.74-.55,51.36,51.36,0,0,0-7.47.55,23.41,23.41,0,0,0-6.82,2,12.45,12.45,0,0,0-4.89,4.15,11.58,11.58,0,0,0-1.84,6.73q0,7.92,5,11T923.21,662.5Z" transform="translate(-144.01 -535.12)"/><path class="b" d="M986.62,556.33l22.31-3.69v29.13h34.29v18.62h-34.29v39.26q0,11.61,3.69,16.59t12.53,5a40.79,40.79,0,0,0,10.78-1.29,73,73,0,0,0,7.47-2.4l3.69,17.7a83.3,83.3,0,0,1-10.14,3.41,55.09,55.09,0,0,1-14.75,1.75q-10.32,0-17.24-2.76a25.39,25.39,0,0,1-11-8,31.73,31.73,0,0,1-5.72-12.72,78.78,78.78,0,0,1-1.66-17V556.33Z" transform="translate(-144.01 -535.12)"/><path class="b" d="M1096.85,579.37q11.06,0,18.62,2.76a29.64,29.64,0,0,1,12.07,7.74,29,29,0,0,1,6.45,12.07,59.14,59.14,0,0,1,1.94,15.58V676q-5.16,1.11-15.58,2.67a159.65,159.65,0,0,1-23.5,1.57,70.25,70.25,0,0,1-15.85-1.66,33.39,33.39,0,0,1-12.26-5.35,25.25,25.25,0,0,1-7.93-9.59q-2.86-5.9-2.86-14.56a28.13,28.13,0,0,1,3.23-14,26.48,26.48,0,0,1,8.76-9.31,37.79,37.79,0,0,1,12.81-5.16A72.37,72.37,0,0,1,1098,619a70.27,70.27,0,0,1,7.74.46,72.27,72.27,0,0,1,8.66,1.57v-3.69a29,29,0,0,0-.92-7.37,14.78,14.78,0,0,0-9.31-10.32,26.41,26.41,0,0,0-9.49-1.48,83.91,83.91,0,0,0-14.19,1.11,63,63,0,0,0-10.51,2.58l-2.77-18.06a87.8,87.8,0,0,1,12.35-2.95A97.24,97.24,0,0,1,1096.85,579.37Zm1.85,83.13a82.78,82.78,0,0,0,15.67-1.11v-24.7a43.19,43.19,0,0,0-5.35-1.11,49.77,49.77,0,0,0-7.74-.55,51.36,51.36,0,0,0-7.47.55,23.41,23.41,0,0,0-6.82,2,12.45,12.45,0,0,0-4.89,4.15,11.58,11.58,0,0,0-1.84,6.73q0,7.92,5,11T1098.7,662.5Z" transform="translate(-144.01 -535.12)"/></svg>