<svg xmlns="http://www.w3.org/2000/svg" viewBox="0 0 774.83 344.97"><defs><style>.a{fill:#009f7d;}.b{fill:#110a50;}</style></defs><title>swachhdata-2</title><path class="a" d="M983.64,510.12a17.92,17.92,0,0,1-3.26-10.36V359.07a23.48,23.48,0,0,0-23.46-23.46H920l.12,0a20.39,20.39,0,0,1,14.63,19.55v56l.16,12.78a48.17,48.17,0,0,1,.56,7.29v35.06l.44,33.61s0,0,0-.08v3.22l0,13.66h56.22A17.81,17.81,0,0,1,983.64,510.12Zm-75.85-3.59c-4.92-4-6.29-15.11-6.29-39.78V454.18c0-6.33-.07-12.79.27-19.16.33-6,.73-12.41,2.73-18.09a17.3,17.3,0,0,1,16.68-11.79,19,19,0,0,1,2.49.19,6.43,6.43,0,0,1,2.46.49c-5-4.15-12.57-6.45-23.46-6.45-30.91,0-47.8,19.3-47.8,60.13,0,40.58,16.89,59.65,43.73,59.65,14.87,0,23.86-4.51,29.46-12.37C924.8,509.11,915.11,512.5,907.79,506.53Z" transform="translate(-361.09 -335.61)"/><path class="b" d="M767.94,398.06c1.17-.83,6,.51,7.32.86a16.38,16.38,0,0,1,6.23,3c8.3,6.68,7.34,19.92,18.66,24A15.36,15.36,0,0,0,814.08,424c12.09-8.75,3.14-22.83-6.74-28.1-11.58-6.19-26.35-6.05-37.56.91C769.16,397.23,768.54,397.64,767.94,398.06Z" transform="translate(-361.09 -335.61)"/><path class="b" d="M782.2,514.16c-1.18.68-5.61-1-6.85-1.47a15.45,15.45,0,0,1-5.63-3.36c-7.25-7.07-5.16-19.5-15.51-24.36a14.55,14.55,0,0,0-13.34.49c-12.22,7.2-5,21.31,3.86,27.19,10.4,6.9,24.39,8.08,35.62,2.5C781,514.84,781.59,514.51,782.2,514.16Z" transform="translate(-361.09 -335.61)"/><path class="b" d="M786.4,435.54c-9.13-2.48-17.77-4.42-23.57-7.71a4.25,4.25,0,0,1-.45-.28,14.39,14.39,0,0,1-4.83-4.3c-3.65-4.14-7.22-11-3.29-19.76-12.46,6.7-19.88,19.35-19.88,35.71,0,27,21.63,34.53,41.1,39.89,11.12,3,19.84,5.15,25,8.72a16.9,16.9,0,0,1,2.11,1.7c3.77,3.37,10.71,11.81,4.54,23.78,12.5-6.37,19.84-18.42,19.84-36.15C827,448.44,805.63,440.65,786.4,435.54Z" transform="translate(-361.09 -335.61)"/><path class="b" d="M385.7,666.17q6.92,0,10.08-1.66a5.89,5.89,0,0,0,3.17-5.69,7.37,7.37,0,0,0-3.38-6.19q-3.39-2.45-11.16-5.33a88.9,88.9,0,0,1-8.71-3.67,29.81,29.81,0,0,1-6.84-4.54,18.78,18.78,0,0,1-4.54-6.26,21.92,21.92,0,0,1-1.66-9q0-10.37,7.63-16.34t20.74-6a64.23,64.23,0,0,1,12.67,1.22,61.65,61.65,0,0,1,9.07,2.38l-3.17,14.11a43.14,43.14,0,0,0-7.34-2.38,44.4,44.4,0,0,0-10.37-1.08,18.06,18.06,0,0,0-8.64,1.8,5.91,5.91,0,0,0-3.31,5.54,8,8,0,0,0,.65,3.31,7,7,0,0,0,2.23,2.66,23,23,0,0,0,4.18,2.45,62.4,62.4,0,0,0,6.34,2.52,96.65,96.65,0,0,1,10.51,4.54,28.54,28.54,0,0,1,7.13,5,17.19,17.19,0,0,1,4.1,6.41,25.68,25.68,0,0,1,1.3,8.64q0,10.8-8,16.34t-22.82,5.54a62.16,62.16,0,0,1-16-1.66,83.62,83.62,0,0,1-8.5-2.66l3-14.54a76,76,0,0,0,9.29,3A46.84,46.84,0,0,0,385.7,666.17Z" transform="translate(-361.09 -335.61)"/><path class="b" d="M477.64,631.32Q474.33,644,470.52,656T463,678.7H448.66q-2.88-6.62-6.06-15.12t-6.35-18.14q-3.18-9.65-6.35-20.3t-6.2-21.74h18.44q1.31,6,3,13t3.62,14.26q1.89,7.27,3.91,14.18t4.05,12.67c1.44-4.41,2.86-9,4.26-13.68s2.72-9.41,4-14.11,2.43-9.29,3.54-13.75,2.09-8.66,3-12.6h13.39q1.29,5.91,2.87,12.6t3.38,13.75q1.8,7.07,3.88,14.11c1.39,4.7,2.8,9.27,4.24,13.68q1.88-5.76,3.91-12.67t4-14.18q2-7.28,3.69-14.26t3-13h18q-3,11.08-6.2,21.74t-6.35,20.3q-3.18,9.64-6.35,18.14t-6.2,15.12H492.6q-3.74-10.65-7.7-22.68T477.64,631.32Z" transform="translate(-361.09 -335.61)"/><path class="b" d="M570,601.51a42.58,42.58,0,0,1,14.54,2.16,23.2,23.2,0,0,1,9.43,6.05,22.72,22.72,0,0,1,5,9.43,46.09,46.09,0,0,1,1.51,12.17V677q-4,.87-12.17,2.09A125,125,0,0,1,570,680.28a54.71,54.71,0,0,1-12.38-1.3,25.86,25.86,0,0,1-9.58-4.18,19.74,19.74,0,0,1-6.19-7.49,25.94,25.94,0,0,1-2.23-11.38A21.94,21.94,0,0,1,542.15,645a20.71,20.71,0,0,1,6.84-7.27,29.47,29.47,0,0,1,10-4,56.71,56.71,0,0,1,11.88-1.22,53.64,53.64,0,0,1,6,.36,57.68,57.68,0,0,1,6.77,1.22v-2.88a22.5,22.5,0,0,0-.72-5.76,11.52,11.52,0,0,0-7.27-8.06,20.54,20.54,0,0,0-7.42-1.15,66.51,66.51,0,0,0-11.09.86,48.88,48.88,0,0,0-8.21,2L546.83,605a67.2,67.2,0,0,1,9.65-2.3A75.55,75.55,0,0,1,570,601.51Zm1.44,65a65.43,65.43,0,0,0,12.24-.86V646.3a32.1,32.1,0,0,0-4.18-.86,38.67,38.67,0,0,0-6-.43,39.84,39.84,0,0,0-5.83.43,18.53,18.53,0,0,0-5.33,1.58,9.73,9.73,0,0,0-3.82,3.24,9.06,9.06,0,0,0-1.44,5.26q0,6.19,3.89,8.57C563.54,665.66,567,666.46,571.46,666.46Z" transform="translate(-361.09 -335.61)"/><path class="b" d="M617.68,641.11a46.08,46.08,0,0,1,2.59-15.62,37,37,0,0,1,7.42-12.6,33.86,33.86,0,0,1,11.74-8.35,38.35,38.35,0,0,1,15.55-3,52.79,52.79,0,0,1,20.16,3.89l-3.74,14.26a40.49,40.49,0,0,0-6.84-2.16,36.55,36.55,0,0,0-8.14-.86q-10.23,0-15.55,6.41t-5.33,18.07q0,11.24,5,17.78t17,6.55a45.14,45.14,0,0,0,8.78-.86,41.1,41.1,0,0,0,7.49-2.16l2.45,14.4a35.86,35.86,0,0,1-8.71,2.59,61.79,61.79,0,0,1-12,1.15,43.87,43.87,0,0,1-16.78-3A31.62,31.62,0,0,1,627,669.42a33.88,33.88,0,0,1-7-12.53A51.93,51.93,0,0,1,617.68,641.11Z" transform="translate(-361.09 -335.61)"/><path class="b" d="M689.83,678.7V569.83L707.25,567v37.3a46.63,46.63,0,0,1,6.7-1.73,40.64,40.64,0,0,1,7.56-.72q9.07,0,15,2.52a23.68,23.68,0,0,1,9.58,7.06,27.5,27.5,0,0,1,5.11,10.87,60.82,60.82,0,0,1,1.51,14.11V678.7H735.34V639.1a58.07,58.07,0,0,0-.79-10.3,18.31,18.31,0,0,0-2.59-6.91,10.42,10.42,0,0,0-4.82-3.89,20.18,20.18,0,0,0-7.49-1.22,36,36,0,0,0-7.06.72,46.73,46.73,0,0,0-5.33,1.3v59.9Z" transform="translate(-361.09 -335.61)"/><path class="b" d="M773.63,678.7V569.83L791.05,567v37.3a46.63,46.63,0,0,1,6.7-1.73,40.64,40.64,0,0,1,7.56-.72q9.08,0,15.05,2.52a23.75,23.75,0,0,1,9.58,7.06,27.5,27.5,0,0,1,5.11,10.87,60.82,60.82,0,0,1,1.51,14.11V678.7H819.14V639.1a57.14,57.14,0,0,0-.79-10.3,18.31,18.31,0,0,0-2.59-6.91,10.42,10.42,0,0,0-4.82-3.89,20.18,20.18,0,0,0-7.49-1.22,36,36,0,0,0-7.06.72,46.73,46.73,0,0,0-5.33,1.3v59.9Z" transform="translate(-361.09 -335.61)"/><path class="a" d="M921.08,676.39a107.7,107.7,0,0,1-29.52,4.18,43.79,43.79,0,0,1-16-2.74,33.15,33.15,0,0,1-12-7.85,34.57,34.57,0,0,1-7.63-12.38,47.19,47.19,0,0,1-2.66-16.34,55,55,0,0,1,2.23-16.2,35.51,35.51,0,0,1,6.55-12.46,29.11,29.11,0,0,1,10.51-8,34.24,34.24,0,0,1,14.26-2.81,32.43,32.43,0,0,1,9.65,1.3,42.76,42.76,0,0,1,7.2,2.88V569.84L921.09,567V676.39Zm-50-35.57q0,11.52,5.47,18.07t15.12,6.55a60.19,60.19,0,0,0,7.13-.36,47,47,0,0,0,4.82-.79v-43.2a26.9,26.9,0,0,0-6.12-3,24,24,0,0,0-8.14-1.37q-9.51,0-13.9,6.48T871.12,640.82Z" transform="translate(-361.09 -335.61)"/><path class="a" d="M968.32,601.51a42.58,42.58,0,0,1,14.54,2.16,23.27,23.27,0,0,1,9.43,6.05,22.72,22.72,0,0,1,5,9.43,46.09,46.09,0,0,1,1.51,12.17V677q-4,.87-12.17,2.09a125,125,0,0,1-18.36,1.22,54.71,54.71,0,0,1-12.38-1.3,26,26,0,0,1-9.58-4.18,19.74,19.74,0,0,1-6.19-7.49,25.94,25.94,0,0,1-2.23-11.38A21.94,21.94,0,0,1,940.45,645a20.71,20.71,0,0,1,6.84-7.27,29.47,29.47,0,0,1,10-4,56.71,56.71,0,0,1,11.88-1.22,53.64,53.64,0,0,1,6.05.36,57.68,57.68,0,0,1,6.77,1.22v-2.88a22.5,22.5,0,0,0-.72-5.76,11.52,11.52,0,0,0-7.27-8.06,20.54,20.54,0,0,0-7.42-1.15,66.51,66.51,0,0,0-11.09.86,48.88,48.88,0,0,0-8.21,2L945.13,605a67.2,67.2,0,0,1,9.65-2.3A75.39,75.39,0,0,1,968.32,601.51Zm1.44,65A65.43,65.43,0,0,0,982,665.6V646.3a32.1,32.1,0,0,0-4.18-.86,38.76,38.76,0,0,0-6.05-.43,39.84,39.84,0,0,0-5.83.43,18.53,18.53,0,0,0-5.33,1.58,9.73,9.73,0,0,0-3.82,3.24,9.06,9.06,0,0,0-1.44,5.26q0,6.19,3.89,8.57C961.83,665.68,965.34,666.46,969.76,666.46Z" transform="translate(-361.09 -335.61)"/><path class="a" d="M1019.29,583.51l17.42-2.88v22.75h26.78v14.54h-26.78v30.67q0,9.07,2.88,13t9.79,3.89a31.5,31.5,0,0,0,8.42-1,57.77,57.77,0,0,0,5.83-1.87l2.88,13.82a66.28,66.28,0,0,1-7.92,2.66,43.16,43.16,0,0,1-11.52,1.37,36.42,36.42,0,0,1-13.46-2.16A19.89,19.89,0,0,1,1025,672a24.83,24.83,0,0,1-4.46-9.94,62,62,0,0,1-1.3-13.32V583.51Z" transform="translate(-361.09 -335.61)"/><path class="a" d="M1105.4,601.51a42.58,42.58,0,0,1,14.54,2.16,23.27,23.27,0,0,1,9.43,6.05,22.72,22.72,0,0,1,5,9.43,46.09,46.09,0,0,1,1.51,12.17V677q-4,.87-12.17,2.09a125,125,0,0,1-18.36,1.22A54.71,54.71,0,0,1,1093,679a26,26,0,0,1-9.58-4.18,19.74,19.74,0,0,1-6.19-7.49,25.94,25.94,0,0,1-2.23-11.38,21.94,21.94,0,0,1,2.52-10.94,20.71,20.71,0,0,1,6.84-7.27,29.47,29.47,0,0,1,10-4,56.71,56.71,0,0,1,11.88-1.22,53.64,53.64,0,0,1,6,.36,57.68,57.68,0,0,1,6.77,1.22v-2.88a22.5,22.5,0,0,0-.72-5.76,11.52,11.52,0,0,0-7.27-8.06,20.54,20.54,0,0,0-7.42-1.15,66.51,66.51,0,0,0-11.09.86,48.88,48.88,0,0,0-8.21,2L1082.21,605a67.2,67.2,0,0,1,9.65-2.3A75.55,75.55,0,0,1,1105.4,601.51Zm1.44,65a65.43,65.43,0,0,0,12.24-.86V646.3a32.1,32.1,0,0,0-4.18-.86,38.76,38.76,0,0,0-6.05-.43,39.84,39.84,0,0,0-5.83.43,18.53,18.53,0,0,0-5.33,1.58,9.73,9.73,0,0,0-3.82,3.24,9.06,9.06,0,0,0-1.44,5.26q0,6.19,3.89,8.57C1098.91,665.68,1102.43,666.46,1106.84,666.46Z" transform="translate(-361.09 -335.61)"/></svg>