<svg xmlns="http://www.w3.org/2000/svg" viewBox="0 0 578.64 411.87"><defs><style>.a{fill:#009f7d;}.b{fill:#110a50;}</style></defs><title>swachhdata-4</title><path class="a" d="M703.44,958.56a40.32,40.32,0,0,1-7.33-23.24V619.59A52.69,52.69,0,0,0,643.47,567H560.63l.27.09a45.76,45.76,0,0,1,32.83,43.86V736.52l.36,28.67a107.7,107.7,0,0,1,1.27,16.37v78.68l1,75.43c0-.09.09-.09.09-.18v7.24l.09,30.66H722.7A40,40,0,0,1,703.44,958.56Zm-170.22-8c-11-9-14.11-33.92-14.11-89.27V833c0-14.2-.17-28.69.61-43,.73-13.4,1.64-27.84,6.12-40.6A38.77,38.77,0,0,1,563.26,723a45.26,45.26,0,0,1,5.58.42c1.33.18,4.48.23,5.53,1.09C563.16,715.18,546.15,710,521.73,710,452.36,710,414.47,753.35,414.47,845c0,91.07,37.9,133.85,98.13,133.85,33.37,0,53.54-10.13,66.11-27.77C571.39,956.3,549.64,963.91,533.22,950.52Z" transform="translate(-144.06 -566.95)"/><path class="b" d="M219.39,707.1c2.62-1.86,13.42,1.15,16.43,1.92a36.5,36.5,0,0,1,14,6.65c18.62,15,16.47,44.71,41.88,53.81,10.3,3.69,22.41,2.3,31.26-4.11,27.14-19.65,7-51.23-15.12-63.07-26-13.89-59.14-13.57-84.3,2.05Q221.42,705.66,219.39,707.1Z" transform="translate(-144.06 -566.95)"/><path class="b" d="M251.38,967.62c-2.64,1.52-12.6-2.29-15.37-3.29a34.69,34.69,0,0,1-12.63-7.55c-16.27-15.86-11.57-43.77-34.8-54.66-9.41-4.41-21-4.18-30,1.09-27.43,16.16-11.25,47.83,8.66,61,23.35,15.47,54.73,18.14,79.93,5.61C248.63,969.15,250,968.4,251.38,967.62Z" transform="translate(-144.06 -566.95)"/><path class="b" d="M260.8,791.19c-20.49-5.55-39.88-9.93-52.9-17.3a8.35,8.35,0,0,1-1-.64,32.12,32.12,0,0,1-10.84-9.65c-8.2-9.29-16.21-24.59-7.38-44.35-28,15-44.62,43.43-44.62,80.13,0,60.55,48.53,77.49,92.24,89.51,24.95,6.83,44.53,11.56,56.18,19.58a36.26,36.26,0,0,1,4.73,3.82c8.47,7.56,24,26.5,10.2,53.36,28-14.3,44.53-41.34,44.53-81.13C352,820.15,304,802.67,260.8,791.19Z" transform="translate(-144.06 -566.95)"/></svg>