<?xml version="1.0" encoding="utf-8"?>
<!-- Generator: Adobe Illustrator 24.0.2, SVG Export Plug-In . SVG Version: 6.00 Build 0)  -->
<svg version="1.1" id="Layer_1" xmlns="http://www.w3.org/2000/svg" xmlns:xlink="http://www.w3.org/1999/xlink" x="0px" y="0px"
	 viewBox="0 0 17.2 12.2" style="enable-background:new 0 0 17.2 12.2;" xml:space="preserve">
<style type="text/css">
	.st0{fill:#009F7D;}
	.st1{fill:#110A50;}
</style>
<title>swachhdata-logo</title>
<path class="st0" d="M16.6,11.6c-0.1-0.2-0.2-0.5-0.2-0.7V1.6c0-0.9-0.7-1.6-1.5-1.6l0,0h-2.4c0.6,0.2,1,0.7,1,1.3v9.6l0,0V12h3.8
	C17,12,16.8,11.8,16.6,11.6z M11.6,11.4c-0.3-0.3-0.4-1-0.4-2.7V6.6c0-0.4,0.1-0.8,0.2-1.2c0.2-0.5,0.6-0.8,1.1-0.8h0.4
	c-0.5-0.3-1-0.5-1.6-0.4C9.2,4.2,8,5.5,8,8.2s1.1,4,2.9,4c0.8,0.1,1.5-0.2,2-0.8C12.5,11.7,12,11.7,11.6,11.4z"/>
<g>
	<path class="st1" d="M2.2,4.2c0.1-0.1,0.4,0,0.5,0.1c0.2,0,0.3,0.1,0.4,0.2C3.7,4.9,3.7,5.7,4.4,6C4.7,6.1,5,6.1,5.3,5.9
		C6.1,5.3,5.6,4.4,4.9,4C4.1,3.6,3.2,3.6,2.4,4.1L2.2,4.2z"/>
	<path class="st1" d="M3.2,11.9c-0.1,0-0.3-0.1-0.4-0.1c-0.2,0-0.3-0.1-0.4-0.2c-0.5-0.5-0.3-1.3-1-1.6c-0.3-0.2-0.7-0.2-1,0
		c-0.8,0.5-0.3,1.4,0.3,1.8c0.7,0.5,1.6,0.5,2.4,0.1C3.1,12,3.2,11.9,3.2,11.9z"/>
	<path class="st1" d="M3.5,6.7C3,6.5,2.4,6.3,1.9,6.1l0,0C1.8,6.1,1.7,6,1.6,5.8C1.2,5.5,1.1,4.9,1.4,4.5l0,0C0.5,5,0,5.9,0,6.9
		c0,1.8,1.4,2.3,2.7,2.7c0.6,0.1,1.2,0.3,1.7,0.6c0.1,0,0.1,0,0.1,0.1l0,0c0.5,0.4,0.6,1.1,0.3,1.6c0.9-0.5,1.4-1.4,1.3-2.4
		C6.2,7.5,4.8,7,3.5,6.7z"/>
</g>
</svg>
